<svg width="402" height="408" viewBox="0 0 402 408" fill="none" xmlns="http://www.w3.org/2000/svg">
<path d="M176 284H158.5L170.5 224.5" stroke="black"/>
<path d="M207.5 204L218 212L228.5 204" stroke="black"/>
<path d="M99.5 210L112 218L121.5 206.5" stroke="black"/>
<path d="M28.7927 135.505L29.0019 131.739C29.0019 131.739 263.502 32.3372 282.002 78.7389C300.502 125.141 309.993 152.739 309.993 152.739M28.7927 135.505C28.7927 135.505 22.0019 255.141 20.0019 293.739C18.0019 332.337 3.00195 300.641 1.50189 274.641C0.00182873 248.641 1.50189 162.641 11.0019 108.739C20.5019 54.8372 281.002 -45.6628 317.002 25.7388C353.002 97.1405 399.502 273.641 401.002 308.739C402.502 343.837 381.502 342.837 369.002 308.739C356.502 274.641 309.993 152.739 309.993 152.739M28.7927 135.505C28.7927 135.505 129.502 351.042 162.502 388.641C195.502 426.239 210.502 399.239 225.502 371.141C240.502 343.042 309.993 152.739 309.993 152.739M87.0019 210.739L151.002 202.739M195.002 202.739H266.002M162.502 314.641H210.502" stroke="black"/>
</svg>
