<svg width="593" height="564" viewBox="0 0 593 564" fill="none" xmlns="http://www.w3.org/2000/svg">
<path d="M0 192.78C1.21486e-05 281.217 72.03 389.696 296.5 564C483.259 426.552 593 291.559 593 192.78C593 94 544.169 3.41359 443.189 0C357.002 0.469386 308.097 60.3657 288.697 141.797C260.375 84.8779 210.671 15.9322 142.008 15.9322C73.3449 15.9322 -1.48823e-05 84.4407 0 192.78Z" fill="#E76464"/>
<path d="M271 330H253.5L265.5 270.5" stroke="black"/>
<path d="M302.5 250L313 258L323.5 250" stroke="black"/>
<path d="M194.5 256L207 264L216.5 252.5" stroke="black"/>
<path d="M123.793 181.505L124.002 177.739C124.002 177.739 358.502 78.3372 377.002 124.739C395.502 171.141 404.993 198.739 404.993 198.739M123.793 181.505C123.793 181.505 117.002 301.141 115.002 339.739C113.002 378.337 98.002 346.641 96.5019 320.641C95.0018 294.641 96.5019 208.641 106.002 154.739C115.502 100.837 376.002 0.337154 412.002 71.7388C448.002 143.141 494.502 319.641 496.002 354.739C497.502 389.837 476.502 388.837 464.002 354.739C451.502 320.641 404.993 198.739 404.993 198.739M123.793 181.505C123.793 181.505 224.502 397.042 257.502 434.641C290.502 472.239 305.502 445.239 320.502 417.141C335.502 389.042 404.993 198.739 404.993 198.739M182.002 256.739L246.002 248.739M290.002 248.739H361.002M257.502 360.641H305.502" stroke="black"/>
</svg>
